{
	"accessors":[{
		"bufferView":0,
		"type":"SCALAR",
		"count":7872,
		"componentType":5123,
		"byteOffset":0,
		"min":[0],
		"max":[7871]
	},
	{
		"bufferView":1,
		"type":"VEC3",
		"count":7872,
		"componentType":5126,
		"byteOffset":0,
		"min":[-1.9990899562835694,
		-4.035492897033691,
		-1.9990899562835694],
		"max":[1.9990899562835694,
		9.34886646270752,
		1.9990899562835694]
	},
	{
		"bufferView":1,
		"type":"VEC3",
		"count":7872,
		"componentType":5126,
		"byteOffset":12,
		"min":[-1.0,
		-1.0,
		-1.0],
		"max":[1.0,
		1.0,
		1.0]
	},
	{
		"bufferView":1,
		"type":"VEC2",
		"count":7872,
		"componentType":5126,
		"byteOffset":24,
		"min":[0.0,
		0.00012125488137826324],
		"max":[1.0,
		0.9999575614929199]
	}],
	"asset":{
		"version":"2.0",
		"generator":"Maxon Cinema 4D 2025.1.3 (#200000219)"
	},
	"scenes":[{
		"nodes":[0]
	}],
	"nodes":[{
		"name":"Subdivisión Superficie",
		"translation":[0.16570894420146943,
		0.6422030925750732,
		0.26577189564704897],
		"rotation":[0.0,
		0.0,
		0.0,
		-1.0],
		"scale":[1.0,
		1.0,
		1.0],
		"children":[1]
	},
	{
		"name":"Botella",
		"translation":[-0.15559697151184083,
		1.9188824892044068,
		-0.21932724118232728],
		"mesh":0,
		"rotation":[0.0,
		0.0,
		0.0,
		-1.0],
		"scale":[1.0,
		1.0,
		1.0]
	}],
	"meshes":[{
		"name":"Botella",
		"primitives":[{
			"attributes":{
				"POSITION":1,
				"NORMAL":2,
				"TEXCOORD_0":3
			},
			"indices":0,
			"material":0
		}]
	}],
	"bufferViews":[{
		"buffer":0,
		"byteOffset":0,
		"byteLength":15744,
		"target":34963
	},
	{
		"buffer":0,
		"byteOffset":15744,
		"byteLength":251904,
		"target":34962,
		"byteStride":32
	}],
	"buffers":[{
		"uri":"data:application/octet-stream;base64,",
		"byteLength":267648
	}],
	"materials":[{
		"pbrMetallicRoughness":{
			"baseColorFactor":[0.21404114365577699,
			0.21404114365577699,
			0.21404114365577699,
			1.0],
			"metallicFactor":0.0,
			"roughnessFactor":0.20000000298023225
		},
		"emissiveFactor":[0.0,
		0.0,
		0.0],
		"alphaMode":"OPAQUE",
		"doubleSided":false,
		"name":"RS Standard"
	}]
}